<?xml version="1.0" standalone="no"?>
<!DOCTYPE svg PUBLIC "-//W3C//DTD SVG 20010904//EN"
 "http://www.w3.org/TR/2001/REC-SVG-20010904/DTD/svg10.dtd">
<svg version="1.0" xmlns="http://www.w3.org/2000/svg"
 width="700.000000pt" height="700.000000pt" viewBox="0 0 700.000000 700.000000"
 preserveAspectRatio="xMidYMid meet">
<metadata>
Created by potrace 1.14, written by Peter Selinger 2001-2017
</metadata>
<g transform="translate(0.000000,700.000000) scale(0.100000,-0.100000)"
fill="#000000" stroke="none">
<path d="M3455 6880 c-43 -17 -210 -216 -309 -366 -139 -213 -246 -482 -272
-682 -2 -19 -6 -37 -7 -38 -2 -2 -21 13 -42 33 -87 79 -192 156 -280 208 -51
30 -96 55 -99 55 -3 0 -33 13 -66 29 -165 80 -463 152 -695 167 -77 5 -106 -5
-137 -47 -17 -23 -19 -42 -19 -155 1 -130 3 -153 22 -299 19 -151 88 -395 140
-497 21 -42 17 -45 -40 -28 -19 5 -52 12 -75 16 -22 3 -43 7 -46 9 -11 7 -189
19 -280 19 -152 0 -354 -24 -475 -56 -22 -5 -47 -11 -55 -13 -109 -22 -143
-43 -158 -99 -9 -32 -7 -50 19 -123 36 -101 100 -249 138 -318 62 -111 133
-224 166 -261 6 -6 26 -31 45 -55 42 -53 149 -161 208 -211 24 -20 40 -38 35
-41 -4 -3 -28 -8 -53 -11 -246 -33 -588 -203 -850 -424 -146 -122 -155 -134
-155 -194 0 -50 1 -51 70 -115 258 -239 551 -406 840 -479 17 -4 32 -8 35 -9
16 -5 106 -19 113 -17 17 5 5 -17 -18 -32 -40 -26 -187 -176 -247 -251 -117
-146 -235 -362 -313 -570 -21 -55 -38 -115 -38 -133 -1 -54 45 -101 113 -116
14 -3 57 -13 95 -21 315 -72 594 -78 850 -20 33 7 68 17 78 21 18 6 18 5 1
-32 -67 -155 -131 -391 -149 -549 -4 -33 -9 -76 -11 -95 -8 -73 -6 -276 4
-300 19 -48 49 -65 116 -65 217 1 564 84 764 183 180 90 277 155 417 284 l30
28 17 -83 c10 -45 19 -91 22 -102 18 -89 87 -266 144 -375 81 -152 269 -408
372 -505 26 -25 40 -30 80 -30 58 0 70 10 192 155 219 261 387 595 423 845 11
70 14 87 18 91 2 3 17 -8 33 -24 201 -199 550 -374 849 -426 17 -3 55 -10 85
-16 76 -15 173 -24 248 -25 60 0 66 2 93 33 l30 34 -2 147 c-4 285 -57 552
-150 760 -31 69 -33 75 -21 67 5 -3 53 -14 108 -25 283 -57 550 -46 879 36
104 25 137 45 153 92 12 35 8 56 -34 169 -75 199 -179 391 -297 547 -58 77
-261 285 -279 285 -21 0 -5 16 18 18 50 4 230 52 309 83 225 86 464 239 660
422 69 64 70 66 70 115 0 60 -10 72 -154 193 -259 217 -522 352 -806 415 -44
9 -86 17 -92 17 -21 0 -15 14 15 33 32 20 197 185 229 229 13 17 39 51 58 77
55 74 138 215 187 318 52 109 119 283 123 320 3 29 -14 67 -41 91 -26 23 -183
63 -366 93 -186 30 -480 24 -643 -14 -27 -6 -58 -13 -68 -15 -9 -2 -22 -7 -27
-10 -14 -9 -12 1 9 43 49 97 119 338 136 472 4 30 9 64 12 75 2 11 7 102 10
202 l6 182 -37 37 -36 36 -88 -6 c-48 -3 -96 -8 -107 -10 -11 -2 -45 -7 -75
-12 -30 -4 -57 -8 -60 -9 -3 -1 -25 -5 -50 -9 -68 -12 -208 -52 -300 -86 -74
-27 -133 -55 -250 -116 -73 -38 -205 -135 -294 -217 l-41 -37 -8 42 c-71 366
-212 646 -480 951 -89 100 -132 122 -192 97z m108 -337 c204 -252 335 -558
354 -832 l6 -83 -29 6 c-60 13 -81 16 -157 22 -43 3 -86 7 -95 9 -9 2 -20 4
-24 4 -5 1 -8 111 -8 246 0 200 -3 251 -15 275 -39 75 -151 75 -190 0 -12 -24
-15 -75 -15 -275 0 -135 -3 -246 -7 -246 -13 -2 -45 -6 -118 -13 -76 -8 -114
-13 -159 -22 l-29 -6 6 86 c15 198 71 373 185 579 63 116 211 317 233 317 3 0
31 -30 62 -67z m-1673 -504 c30 -5 67 -11 81 -14 115 -21 374 -119 451 -170
21 -14 40 -25 43 -25 37 0 327 -262 309 -279 -5 -5 -44 -23 -87 -40 -42 -17
-113 -49 -157 -71 -44 -22 -83 -40 -87 -40 -7 0 -59 75 -73 104 -21 44 -183
277 -205 294 -72 57 -186 -12 -169 -102 2 -15 58 -110 124 -211 66 -100 122
-190 126 -198 3 -9 -7 -23 -28 -38 -44 -31 -140 -111 -154 -128 -9 -11 -16 -8
-37 20 -36 48 -99 155 -129 219 -29 60 -100 260 -93 260 2 0 0 12 -5 28 -17
50 -41 206 -47 310 l-6 103 44 -6 c24 -3 69 -10 99 -16z m3357 -82 c-15 -242
-92 -521 -188 -680 -16 -26 -29 -50 -29 -53 0 -2 -18 -30 -41 -60 l-40 -55
-32 31 c-18 18 -71 61 -119 97 -52 39 -85 70 -81 77 4 6 19 25 34 41 56 64
236 272 262 303 78 95 -23 224 -131 168 -15 -8 -59 -51 -97 -97 -39 -46 -77
-90 -85 -99 -8 -9 -40 -45 -70 -80 -30 -36 -69 -80 -85 -98 l-31 -33 -82 40
c-46 22 -112 50 -147 63 -36 12 -65 27 -65 32 0 5 39 48 88 95 143 142 327
253 532 321 106 36 93 33 220 59 93 19 120 24 169 29 l24 2 -6 -103z m-1617
-511 c510 -29 1004 -275 1345 -670 224 -260 369 -554 440 -896 24 -115 26
-131 30 -350 3 -192 -1 -250 -29 -410 -26 -142 -97 -344 -177 -503 -44 -87
-150 -261 -169 -277 -3 -3 -21 -25 -40 -50 -127 -165 -319 -336 -515 -456
-220 -136 -518 -241 -765 -271 -85 -10 -431 -10 -495 0 -165 26 -248 45 -360
82 -411 135 -774 410 -1016 770 -69 103 -73 111 -130 225 -93 188 -155 393
-183 600 -14 101 -16 432 -3 520 108 727 586 1320 1267 1573 178 66 354 102
550 113 58 4 106 8 108 9 1 1 12 1 25 -1 12 -2 65 -5 117 -8z m-2200 -370 c82
-11 111 -16 155 -27 123 -31 285 -94 285 -111 0 -5 -24 -37 -52 -71 -29 -34
-71 -88 -92 -120 -22 -31 -42 -57 -45 -57 -4 0 -15 6 -26 14 -11 7 -108 59
-215 114 -168 87 -200 100 -230 96 -80 -13 -119 -100 -75 -168 9 -13 53 -44
98 -67 45 -24 130 -68 188 -99 58 -30 116 -62 128 -70 l21 -15 -49 -111 c-27
-60 -53 -122 -56 -137 -4 -15 -12 -27 -17 -27 -5 0 -33 15 -61 34 -142 95
-276 232 -379 386 -93 140 -208 376 -191 390 9 8 172 37 253 46 30 4 56 7 57
8 6 5 256 -2 303 -8z m4510 -1 c36 -4 74 -9 85 -11 79 -16 151 -28 158 -26 12
3 8 -14 -20 -80 -120 -282 -289 -508 -494 -663 -97 -73 -129 -88 -129 -62 0 6
-23 64 -50 127 -27 63 -50 118 -50 121 0 3 83 52 184 110 204 116 233 142 223
205 -7 43 -30 72 -71 89 -38 16 -70 7 -157 -45 -37 -22 -70 -40 -73 -40 -3 0
-30 -16 -60 -35 -30 -19 -58 -35 -61 -35 -3 0 -23 -11 -43 -25 -20 -14 -42
-25 -49 -25 -6 0 -36 35 -67 78 -30 42 -73 97 -95 122 -22 25 -41 50 -41 56 0
16 150 78 252 103 116 29 122 30 208 37 41 3 76 7 78 9 5 4 206 -3 272 -10z
m-4570 -1162 c0 -4 -5 -26 -10 -48 -5 -22 -12 -76 -16 -120 -6 -77 -10 -112
-13 -127 0 -4 -117 -8 -259 -10 -242 -3 -259 -4 -279 -23 -34 -32 -45 -71 -33
-116 19 -71 30 -73 320 -79 l255 -5 2 -45 c3 -54 22 -205 30 -239 l6 -23 -94
6 c-157 10 -378 76 -529 158 -54 30 -250 156 -260 168 -3 3 -29 24 -58 47
l-52 41 52 45 c83 71 270 192 371 240 126 60 275 108 387 124 19 3 36 6 38 8
7 6 142 5 142 -2z m4450 -8 c14 -3 38 -8 54 -11 126 -23 309 -95 451 -179 57
-34 188 -126 225 -158 14 -13 35 -30 48 -39 l24 -16 -64 -53 c-142 -118 -353
-241 -511 -296 -144 -50 -391 -92 -413 -70 -2 2 1 30 6 63 10 60 22 168 24
214 l1 25 255 5 c280 5 292 8 316 66 23 56 5 113 -46 139 -24 12 -75 15 -274
15 -271 0 -254 -4 -254 66 -1 34 -20 186 -29 223 l-6 24 84 -6 c46 -4 95 -9
109 -12z m-4346 -1177 c10 -29 36 -92 59 -141 22 -48 38 -89 36 -91 -2 -2 -98
-56 -214 -120 -115 -64 -223 -130 -238 -147 -25 -27 -28 -37 -23 -72 7 -50 40
-85 88 -96 38 -9 50 -4 163 59 33 18 114 63 180 100 66 37 130 72 142 78 19
11 24 8 44 -24 12 -20 53 -74 91 -120 37 -46 68 -88 68 -92 0 -18 -182 -87
-295 -113 -172 -39 -439 -45 -598 -13 -12 2 -49 9 -83 15 -85 15 -88 18 -68
65 140 335 329 577 584 746 38 26 44 22 64 -34z m4124 28 c224 -141 433 -404
561 -706 32 -74 31 -87 -6 -91 -7 -1 -16 -2 -20 -4 -175 -47 -486 -51 -682
-10 -84 17 -178 44 -201 56 -8 4 -41 19 -73 33 l-58 26 58 67 c32 38 76 94 97
126 22 31 44 57 49 57 5 0 88 -45 184 -101 215 -125 220 -127 268 -108 55 20
82 75 66 130 -14 46 -28 55 -261 189 -80 45 -146 84 -148 85 -1 1 13 36 32 76
19 41 45 102 58 136 13 35 26 63 31 63 4 0 24 -11 45 -24z m-3536 -879 c30
-30 192 -157 200 -157 19 0 0 -29 -137 -207 -96 -125 -147 -199 -151 -222 -16
-85 79 -154 154 -113 18 10 97 103 182 215 83 108 153 197 155 197 2 0 44 -20
94 -44 50 -24 120 -55 156 -67 36 -13 65 -27 65 -31 0 -16 -120 -135 -195
-192 -96 -75 -158 -113 -262 -162 -72 -34 -253 -98 -305 -108 -13 -2 -45 -9
-73 -15 -27 -6 -68 -13 -90 -16 -22 -3 -55 -8 -74 -12 l-34 -6 6 110 c4 61 9
117 11 124 3 8 7 32 10 54 3 22 8 51 11 65 3 14 8 38 10 54 13 67 78 247 118
326 36 71 127 220 134 220 1 0 8 -6 15 -13z m2925 -40 c117 -163 212 -406 239
-612 3 -27 8 -53 10 -56 2 -4 7 -57 10 -119 l7 -112 -44 6 c-343 53 -581 146
-794 311 -77 60 -195 177 -195 194 0 4 19 13 42 20 22 7 89 35 147 61 82 38
109 46 117 37 6 -7 62 -75 125 -152 156 -192 177 -214 216 -224 66 -19 133 34
133 104 0 29 -12 55 -40 88 -74 88 -250 306 -250 310 0 3 39 34 88 71 48 36
101 79 117 95 17 16 31 30 32 30 1 1 19 -23 40 -52z m-1822 -482 c17 -2 64 -8
105 -11 41 -4 82 -8 90 -10 8 -1 18 -3 23 -3 4 -1 7 -111 7 -246 0 -200 3
-251 15 -275 28 -53 94 -70 153 -38 48 25 52 49 52 313 0 135 3 246 8 246 4 1
23 3 42 5 79 8 207 24 234 29 l28 6 -6 -83 c-15 -224 -102 -466 -246 -683 -62
-93 -158 -215 -171 -215 -5 0 -36 34 -69 75 -204 257 -329 555 -347 824 l-6
83 29 -6 c16 -3 43 -8 59 -11z"/>
<path d="M3432 5165 c-58 -48 -52 -137 12 -176 58 -35 127 -14 153 48 30 74
-9 141 -89 150 -37 4 -49 1 -76 -22z"/>
<path d="M2365 4678 c-28 -16 -55 -48 -56 -67 0 -9 -2 -23 -4 -32 -5 -29 22
-74 57 -93 98 -53 199 57 141 154 -27 46 -92 64 -138 38z"/>
<path d="M4531 4676 c-49 -27 -67 -109 -35 -155 22 -31 75 -52 113 -45 39 8
80 52 82 89 3 52 0 62 -30 94 -23 24 -37 31 -68 31 -21 -1 -49 -7 -62 -14z"/>
<path d="M3295 4650 c-150 -27 -269 -72 -394 -147 -283 -172 -474 -438 -548
-768 -18 -83 -25 -315 -12 -400 61 -387 298 -712 647 -884 243 -120 497 -148
796 -86 76 16 217 74 318 133 102 58 208 151 292 252 133 162 198 293 251 510
19 78 28 312 15 390 -5 30 -12 71 -15 90 -18 110 -92 285 -174 410 -49 75 -73
103 -161 190 -155 152 -334 248 -570 305 -102 25 -324 27 -445 5z m368 -214
c310 -58 549 -239 687 -520 68 -137 91 -231 96 -386 7 -271 -79 -496 -264
-688 -182 -188 -411 -287 -673 -290 -345 -3 -653 172 -831 473 -33 55 -85 175
-93 214 -2 9 -10 48 -19 86 -15 70 -16 281 -2 350 71 336 304 607 621 722 136
49 336 65 478 39z"/>
<path d="M3885 4074 c-22 -7 -41 -14 -42 -14 -1 0 -9 -13 -18 -30 -59 -114 77
-221 168 -131 54 53 34 147 -38 177 -24 10 -38 9 -70 -2z"/>
<path d="M3023 4060 c-73 -44 -62 -158 19 -188 72 -27 137 13 145 91 5 43 3
49 -30 82 -41 41 -84 46 -134 15z"/>
<path d="M3429 3582 c-73 -65 -26 -192 72 -192 33 0 85 37 99 70 44 105 -86
198 -171 122z"/>
<path d="M3023 3121 c-44 -27 -59 -75 -42 -128 15 -46 54 -71 107 -69 58 3 92
37 99 98 5 39 2 49 -23 77 -38 42 -95 51 -141 22z"/>
<path d="M3875 3126 c-91 -40 -83 -166 12 -202 84 -31 168 66 128 149 -25 54
-86 77 -140 53z"/>
<path d="M1943 3600 c-29 -12 -57 -55 -59 -93 -8 -117 152 -158 203 -53 44 93
-47 185 -144 146z"/>
<path d="M4933 3575 c-33 -33 -35 -39 -30 -81 5 -52 26 -79 73 -94 43 -15 96
1 118 35 52 79 4 175 -87 175 -31 0 -46 -7 -74 -35z"/>
<path d="M2356 2511 c-91 -55 -49 -201 58 -201 119 0 147 174 33 208 -42 13
-60 12 -91 -7z"/>
<path d="M4513 2494 c-91 -86 13 -228 125 -170 76 39 73 154 -3 191 -47 21
-83 15 -122 -21z"/>
<path d="M3471 2028 c-123 -34 -94 -215 34 -211 85 2 134 107 81 175 -22 30
-76 46 -115 36z"/>
</g>
</svg>
