<?xml version="1.0" encoding="iso-8859-1"?>
<!-- Generator: Adobe Illustrator 21.0.2, SVG Export Plug-In . SVG Version: 6.00 Build 0)  -->
<svg version="1.1" xmlns="http://www.w3.org/2000/svg" xmlns:xlink="http://www.w3.org/1999/xlink" x="0px" y="0px"
	 viewBox="0 0 64 64" style="enable-background:new 0 0 64 64;" xml:space="preserve">
<g id="crocus">
</g>
<g id="cactus">
</g>
<g id="anemone_1_">
</g>
<g id="twinflower">
</g>
<g id="_angelonia">
</g>
<g id="magnolia">
</g>
<g id="rosella">
</g>
<g id="amaryllis">
</g>
<g id="lily_calla">
</g>
<g id="cleome">
</g>
<g id="euphorbia">
</g>
<g id="rafflesia">
</g>
<g id="krisan">
</g>
<g id="orchid">
</g>
<g id="anemone">
</g>
<g id="gaura">
</g>
<g id="poppy">
</g>
<g id="bluestar">
</g>
<g id="hydrangea">
</g>
<g id="leadwort">
</g>
<g id="anthurium">
</g>
<g id="blossom">
</g>
<g id="lily">
</g>
<g id="tulip">
</g>
<g id="sunflower">
	<g>
		<path d="M62.999,32c0-0.2729-0.1113-0.5337-0.3086-0.7222c-3.0224-2.894-6.2431-4.5512-9.5605-5.0058
			c2.5517-1.9527,4.4883-4.8433,5.7519-8.6563c0.086-0.2588,0.0625-0.542-0.0654-0.7832c-0.1279-0.2407-0.3496-0.4194-0.6123-0.4936
			c-3.6299-1.0264-6.9277-1.1177-9.8525-0.274c1.1767-2.4199,1.748-5.2895,1.6757-8.5971c-0.0058-0.273-0.124-0.5318-0.3252-0.7158
			c-0.2011-0.1846-0.4833-0.2774-0.7412-0.2598c-4.7656,0.3188-8.5107,1.8808-11.1855,4.6313
			c-0.3926-3.4131-2.0791-6.7075-5.0527-9.8149c-0.377-0.3945-1.0684-0.3945-1.4454,0c-2.9707,3.104-4.6562,6.3955-5.0498,9.8154
			c-2.6621-2.7446-6.414-4.3125-11.1904-4.6318c-0.2617-0.0176-0.54,0.0752-0.7412,0.2598
			c-0.2012,0.184-0.3193,0.4428-0.3252,0.7158c-0.0723,3.3056,0.499,6.1738,1.6758,8.5932
			c-2.916-0.8398-6.2149-0.7485-9.8496,0.2779c-0.2617,0.0742-0.4834,0.2524-0.6114,0.4936
			c-0.1279,0.2412-0.1513,0.5239-0.0654,0.7832c1.2588,3.8018,3.1875,6.6865,5.7393,8.645
			c-3.3184,0.4478-6.5235,2.1202-9.5498,5.0171C1.1123,31.4663,1.001,31.7271,1.001,32c0,0.2729,0.1113,0.5337,0.3086,0.7222
			c3.0224,2.8935,6.2226,4.5644,9.5488,5.0151c-2.5459,1.9531-4.4785,4.8398-5.7383,8.647
			c-0.0859,0.2593-0.0625,0.542,0.0654,0.7832c0.128,0.2412,0.3497,0.4194,0.6114,0.4936c1.9941,0.5635,3.8867,0.8457,5.6728,0.8457
			c1.4746,0,2.8672-0.2153,4.1914-0.6001c-1.1865,2.4253-1.7636,5.3042-1.6904,8.6255c0.0059,0.273,0.124,0.5318,0.3252,0.7158
			c0.1846,0.1695,0.4258,0.2623,0.6748,0.2623c0.0225,0,0.0449-0.001,0.0664-0.0025c4.7666-0.3188,8.5137-1.8813,11.1875-4.6313
			c0.3926,3.4131,2.0791,6.708,5.0527,9.8149C31.4658,62.8887,31.7275,63,32,63c0.2725,0,0.5342-0.1113,0.7227-0.3086
			c2.9707-3.104,4.6562-6.3955,5.0498-9.8154c2.6621,2.7446,6.413,4.3125,11.1884,4.6318c0.0215,0.0015,0.044,0.0025,0.0664,0.0025
			c0.2491,0,0.4903-0.0928,0.6748-0.2623c0.2012-0.184,0.3194-0.4428,0.3252-0.7158c0.0733-3.3203-0.5019-6.1977-1.6875-8.622
			c1.3204,0.3828,2.709,0.5971,4.1827,0.5971c1.788,0,3.6845-0.2817,5.6816-0.8462c0.2627-0.0742,0.4844-0.2529,0.6123-0.4936
			c0.1279-0.2412,0.1514-0.5244,0.0654-0.7832c-1.2597-3.8013-3.1884-6.6861-5.7412-8.645
			c3.3184-0.4478,6.5235-2.1202,9.5498-5.0171C62.8877,32.5337,62.999,32.2729,62.999,32z M32,49.853
			c-9.8447,0-17.8535-8.0088-17.8535-17.853S22.1553,14.147,32,14.147S49.8535,22.1558,49.8535,32S41.8447,49.853,32,49.853z
			 M56.623,17.9956c-1.3359,3.4834-3.3232,5.9902-5.8906,7.4883c-0.2969-0.8501-0.6465-1.6734-1.0508-2.4668l3.293-1.8926
			c0.4785-0.2749,0.6445-0.8862,0.3692-1.3652c-0.2745-0.4785-0.8858-0.645-1.3653-0.3692l-3.293,1.8921
			c-0.5595-0.8691-1.1884-1.686-1.873-2.4551C49.5723,17.4048,52.8652,17.1196,56.623,17.9956z M48.0264,8.5835
			c-0.085,3.5352-1.0147,6.4468-2.7578,8.6909c-0.7051-0.6362-1.4424-1.2363-2.2344-1.7676l2.8242-3.2612
			c0.3613-0.418,0.3164-1.0493-0.1016-1.4106c-0.415-0.3609-1.0488-0.316-1.4101,0.101L41.29,14.4668
			c-0.875-0.4653-1.7939-0.8545-2.7402-1.1865c0.0977-0.1382,0.1963-0.2847,0.293-0.3994
			C40.9746,10.4775,44.0605,9.0342,48.0264,8.5835z M32,3.4814c2.54,2.9126,3.8301,5.9561,3.8633,9.0494
			c-0.9317-0.1846-1.8906-0.2842-2.8633-0.333V7.8784c0-0.5522-0.4473-1-1-1c-0.5527,0-1,0.4478-1,1v4.3194
			c-0.9727,0.0488-1.9307,0.1484-2.8613,0.3325C28.1758,9.4282,29.4648,6.3896,32,3.4814z M25.1416,12.8633
			c0.1055,0.124,0.2061,0.2734,0.3086,0.417c-1.0879,0.3818-2.1367,0.8452-3.1299,1.4023l-2.2539-3.4536
			c-0.3027-0.4629-0.9219-0.5923-1.3848-0.291c-0.4619,0.3017-0.5927,0.9214-0.291,1.3838l2.2383,3.4292
			c-0.666,0.4673-1.2949,0.98-1.8975,1.5234c-1.7441-2.2451-2.6738-5.1567-2.7597-8.6909
			C19.9385,9.0342,23.0244,10.4761,25.1416,12.8633z M7.3779,17.9956c3.7705-0.8794,7.0684-0.5908,9.8106,0.8306
			c-0.6465,0.7256-1.2471,1.4902-1.7832,2.3056l-3.7432-1.9692c-0.4873-0.2568-1.0937-0.0693-1.3506,0.4199
			c-0.2578,0.4888-0.0693,1.0933,0.419,1.3506l3.664,1.9268c-0.4384,0.8403-0.8105,1.7177-1.1259,2.6225
			C10.6904,23.9727,8.709,21.4687,7.3779,17.9956z M12.5313,28.1309c-0.1856,0.9331-0.2852,1.8945-0.334,2.8691H7.8789
			c-0.5527,0-1,0.4478-1,1c0,0.5522,0.4473,1,1,1h4.3184c0.0488,0.9727,0.1484,1.9312,0.333,2.8623
			C9.3916,35.8271,6.3896,34.5347,3.4824,32C6.3965,29.459,9.4395,28.1636,12.5313,28.1309z M7.3779,46.0044
			c1.334-3.4815,3.3213-5.9878,5.8897-7.4883c0.3183,0.9126,0.6933,1.7974,1.1357,2.6441l-3.9072,2.1674
			c-0.4824,0.2681-0.6572,0.8765-0.3887,1.3594c0.1826,0.3296,0.5235,0.5151,0.875,0.5151c0.1641,0,0.3301-0.0405,0.4844-0.1254
			l3.9492-2.191c0.5322,0.8081,1.1299,1.5664,1.7715,2.2867C14.4277,46.5952,11.1377,46.8799,7.3779,46.0044z M15.9717,55.4165
			c0.0859-3.5361,1.0156-6.4482,2.7597-8.6909c0.6573,0.5928,1.3418,1.1543,2.0743,1.6562l-2.5811,3.3662
			c-0.3359,0.438-0.2529,1.066,0.1856,1.4019c0.1816,0.1392,0.3955,0.2065,0.6074,0.2065c0.3008,0,0.5976-0.1347,0.7949-0.3916
			l2.7051-3.5278c0.9326,0.5093,1.9189,0.9268,2.9336,1.2827c-0.0977,0.1377-0.1953,0.2832-0.294,0.3994
			C23.0254,53.5225,19.9385,54.9658,15.9717,55.4165z M32,60.5186c-2.5391-2.9122-3.8291-5.9556-3.8633-9.0494
			c0.9317,0.1846,1.8906,0.2842,2.8633,0.333v4.3194c0,0.5522,0.4473,1,1,1c0.5527,0,1-0.4478,1-1v-4.3194
			c0.9727-0.0488,1.9307-0.1484,2.8613-0.3325C35.8242,54.5723,34.5352,57.6113,32,60.5186z M38.8594,51.1377
			c-0.1045-0.1235-0.2061-0.2739-0.3086-0.4185c0.9385-0.3296,1.8506-0.7158,2.7197-1.1767l2.6826,3.2607
			c0.1983,0.2403,0.4844,0.3648,0.7735,0.3648c0.2236,0,0.4482-0.0747,0.6347-0.2276c0.4258-0.351,0.4873-0.9814,0.1367-1.4077
			l-2.4882-3.0244c0.7998-0.5356,1.5468-1.1401,2.2588-1.7827c1.7431,2.2422,2.6728,5.1533,2.7587,8.6909
			C44.0605,54.9658,40.9756,53.5239,38.8594,51.1377z M56.623,46.0044c-3.7714,0.8774-7.0703,0.5903-9.8125-0.8296
			c0.6631-0.7441,1.2754-1.5308,1.8213-2.3682l3.3213,1.9292c0.1582,0.0918,0.3301,0.1353,0.501,0.1353
			c0.3447,0,0.6797-0.1782,0.8652-0.4976c0.2784-0.4775,0.1153-1.0898-0.3623-1.3672l-3.3213-1.9292
			c0.4248-0.8212,0.7881-1.6767,1.0957-2.5595C53.3086,40.0269,55.291,42.5308,56.623,46.0044z M51.4688,35.8691
			c0.1855-0.9331,0.2851-1.8945,0.3339-2.8691h4.3203c0.5528,0,1-0.4478,1-1c0-0.5522-0.4472-1-1-1h-4.3203
			c-0.0488-0.9722-0.1484-1.9307-0.333-2.8613c3.126,0.0444,6.1416,1.3266,9.0479,3.8613
			C57.6045,34.541,54.5615,35.8364,51.4688,35.8691z"/>
		<path d="M32,21.3062c-5.8965,0-10.6934,4.7973-10.6934,10.6938S26.1035,42.6938,32,42.6938
			c5.8965,0,10.6934-4.7973,10.6934-10.6938S37.8965,21.3062,32,21.3062z M32,40.6938c-4.7939,0-8.6934-3.8999-8.6934-8.6938
			c0-4.7939,3.8995-8.6938,8.6934-8.6938c4.7939,0,8.6934,3.8999,8.6934,8.6938C40.6934,36.7939,36.7939,40.6938,32,40.6938z"/>
		<path d="M32,30.979c-0.5527,0-1,0.4478-1,1V32c0,0.5522,0.4473,0.9893,1,0.9893c0.5527,0,1-0.4581,1-1.0103
			C33,31.4268,32.5527,30.979,32,30.979z"/>
		<path d="M28.1807,35.293c-0.5528,0-1,0.4477-1,1v0.021c0,0.5522,0.4472,0.9897,1,0.9897c0.5527,0,1-0.4585,1-1.0107
			C29.1807,35.7407,28.7334,35.293,28.1807,35.293z"/>
		<path d="M35.8193,35.314c-0.5527,0-1,0.4477-1,1v0.0214c0,0.5523,0.4473,0.9893,1,0.9893c0.5528,0,1-0.4585,1-1.0107
			C36.8193,35.7617,36.3721,35.314,35.8193,35.314z"/>
		<path d="M35.8193,26.6646c-0.5527,0-1,0.4477-1,1v0.0214c0,0.5523,0.4473,0.9893,1,0.9893c0.5528,0,1-0.4585,1-1.0107
			C36.8193,27.1123,36.3721,26.6646,35.8193,26.6646z"/>
		<path d="M28.1807,26.686c-0.5528,0-1,0.4478-1,1v0.021c0,0.5523,0.4472,0.9893,1,0.9893c0.5527,0,1-0.458,1-1.0103
			C29.1807,27.1338,28.7334,26.686,28.1807,26.686z"/>
		<path d="M22.0654,23.1299c0.5528,0,1-0.4605,1-1.0127c0-0.5523-0.4472-1-1-1c-0.5527,0-1,0.4477-1,1v0.0249
			C21.0654,22.6943,21.5127,23.1299,22.0654,23.1299z"/>
		<path d="M41.9346,21.0962c-0.5528,0-1,0.4477-1,1v0.021c0,0.5522,0.4472,0.9892,1,0.9892c0.5527,0,1-0.458,1-1.0102
			C42.9346,21.5439,42.4873,21.0962,41.9346,21.0962z"/>
		<path d="M41.9346,40.8828c-0.5528,0-1,0.4478-1,1v0.021c0,0.5523,0.4472,0.9898,1,0.9898c0.5527,0,1-0.4585,1-1.0108
			C42.9346,41.3306,42.4873,40.8828,41.9346,40.8828z"/>
		<path d="M22.0654,40.8828c-0.5527,0-1,0.4478-1,1v0.021c0,0.5523,0.4473,0.9898,1,0.9898c0.5528,0,1-0.4585,1-1.0108
			C23.0654,41.3306,22.6182,40.8828,22.0654,40.8828z"/>
		<path d="M45.7939,30.979c-0.5527,0-1,0.4478-1,1V32c0,0.5522,0.4473,0.9893,1,0.9893c0.5528,0,1-0.4581,1-1.0103
			C46.7939,31.4268,46.3467,30.979,45.7939,30.979z"/>
		<path d="M18.2061,30.979c-0.5528,0-1,0.4478-1,1V32c0,0.5522,0.4472,0.9893,1,0.9893c0.5527,0,1-0.4581,1-1.0103
			C19.2061,31.4268,18.7588,30.979,18.2061,30.979z"/>
		<path d="M32,45.3999c-0.5527,0-1,0.4478-1,1v0.0215c0,0.5522,0.4473,0.9892,1,0.9892c0.5527,0,1-0.4585,1-1.0107
			S32.5527,45.3999,32,45.3999z"/>
		<path d="M32,18.5469c0.5527,0,1-0.4585,1-1.0108c0-0.5522-0.4473-1-1-1c-0.5527,0-1,0.4478-1,1v0.022
			C31,18.1104,31.4473,18.5469,32,18.5469z"/>
	</g>
</g>
<g id="jasmine">
</g>
<g id="bell">
</g>
<g id="rose">
</g>
<g id="zinnia">
</g>
<g id="buttercup">
</g>
</svg>
